<svg width="2560" height="1018" viewBox="0 0 2560 1018" fill="none" xmlns="http://www.w3.org/2000/svg">
    <path
        d="M31.5941 29.8536C20.7117 25.9903 5.99703 11.2684 0 4.39034V1018H2560V4.39034C2554 11.2684 2539.29 25.9902 2528.41 29.8536C2514.8 34.6829 2481.45 66.7316 2470.04 103.609C2460.92 133.112 2464.93 159.512 2468.73 169.463C2467.12 175.17 2459.95 183.951 2441.52 169.463C2428.8 161.707 2393.69 149.97 2355.08 165.073C2306.81 183.951 2285.31 230.487 2290.13 275.267C2292.62 283.17 2297.68 299.589 2298.03 302.048C2298.47 305.121 2294.08 316.535 2273.02 306.438C2251.96 296.34 2202.81 299.853 2185.26 312.145C2177.61 314.412 2158.13 324.137 2139.69 345.143C2137.8 344.753 2135.78 344.03 2133.92 342.877C2114.96 320.399 2094.43 310.096 2086.53 307.755C2068.98 295.462 2019.83 291.95 1998.77 302.048C1977.7 312.145 1973.32 300.73 1973.75 297.657C1974.11 295.199 1979.17 278.779 1981.65 270.877C1986.48 226.097 1964.98 179.56 1916.71 160.682C1878.09 145.58 1842.99 157.316 1830.26 165.072C1811.83 179.56 1804.67 170.78 1803.06 165.072C1806.86 155.121 1810.87 128.721 1801.74 99.2191C1790.33 62.3412 1756.98 30.2926 1743.38 25.4633C1732.5 21.5999 1717.78 6.87802 1711.79 0C1705.79 6.87802 1691.08 21.5999 1680.19 25.4633C1666.59 30.2926 1633.24 62.3412 1621.83 99.2191C1612.7 128.721 1616.71 155.121 1620.51 165.072C1618.91 170.78 1611.74 179.56 1593.31 165.072C1580.58 157.316 1545.48 145.58 1506.86 160.682C1458.6 179.56 1437.09 226.097 1441.92 270.877C1444.41 278.779 1449.47 295.199 1449.82 297.657C1450.26 300.73 1445.87 312.145 1424.81 302.048C1403.74 291.95 1354.6 295.462 1337.05 307.755C1329.15 310.096 1308.61 320.399 1289.65 342.877C1286.58 344.779 1283.07 345.511 1280.44 345.511C1277.81 345.511 1274.3 344.779 1271.22 342.877C1252.27 320.399 1231.73 310.096 1223.83 307.755C1206.28 295.462 1157.13 291.95 1136.07 302.048C1115.01 312.145 1110.62 300.73 1111.06 297.657C1111.41 295.199 1116.47 278.779 1118.96 270.877C1123.78 226.097 1102.28 179.56 1054.01 160.682C1015.4 145.58 980.295 157.316 967.569 165.072C949.139 179.56 941.972 170.78 940.363 165.072C944.166 155.121 948.174 128.721 939.047 99.2191C927.638 62.3412 894.289 30.2926 880.686 25.4633C869.803 21.5999 855.089 6.87802 849.091 0C843.094 6.87802 828.38 21.5999 817.497 25.4633C803.894 30.2926 770.545 62.3412 759.136 99.2191C750.009 128.721 754.017 155.121 757.82 165.072C756.211 170.78 749.043 179.56 730.614 165.072C717.888 157.316 682.784 145.58 644.169 160.682C595.9 179.56 574.398 226.097 579.225 270.877C581.712 278.779 586.773 295.199 587.124 297.657C587.562 300.73 583.174 312.145 562.112 302.048C541.049 291.95 491.903 295.462 474.35 307.755C466.452 310.096 445.916 320.399 426.959 342.877C424.847 344.185 422.527 344.939 420.428 345.283C401.959 324.18 382.404 314.417 374.741 312.145C357.189 299.853 308.043 296.34 286.98 306.438C265.917 316.535 261.529 305.121 261.968 302.048C262.319 299.589 267.38 283.17 269.866 275.267C274.693 230.487 253.192 183.951 204.923 165.073C166.308 149.97 131.203 161.707 118.478 169.463C100.048 183.951 92.8808 175.17 91.2719 169.463C95.0748 159.512 99.0826 133.112 89.9554 103.609C78.5464 66.7316 45.1971 34.6829 31.5941 29.8536Z"
        fill="white" />
</svg>