<svg width="299" height="316" viewBox="0 0 299 316" fill="none" xmlns="http://www.w3.org/2000/svg">
<path fill-rule="evenodd" clip-rule="evenodd" d="M233.303 297.926C259.382 284.395 280.059 264.659 294.469 241.484C297.828 236.083 292.889 229.644 286.598 230.578C216.569 240.977 174.194 210.871 149.069 163.48C123.965 116.13 122.735 64.0719 171.036 12.9662C175.417 8.33092 172.957 0.560126 166.588 0.223329C139.114 -1.22949 110.937 4.37617 84.849 17.9119C7.16446 58.2184 -22.5788 153.577 18.4155 230.9C59.4099 308.224 155.618 338.233 233.303 297.926Z" fill="#077B74"/>
<path d="M232.216 63.5713L257.385 99.0912L298.943 86.1311L272.939 121.044L298.107 156.564L256.868 142.621L230.864 177.533L231.38 134.004L190.141 120.061L231.7 107.101L232.216 63.5713Z" fill="#077B74"/>
</svg>
