<svg width="2560" height="737" viewBox="0 0 2560 737" fill="none" xmlns="http://www.w3.org/2000/svg">
            <path d="M31.5941 29.839C20.7117 25.9775 5.99703 11.2628 0 4.38818V1017.5H2560V4.38818C2554 11.2628 2539.29 25.9775 2528.41 29.839C2514.8 34.6659 2481.45 66.6988 2470.04 103.559C2460.92 133.046 2464.93 159.433 2468.73 169.38C2467.12 175.084 2459.95 183.86 2441.52 169.38C2428.8 161.627 2393.69 149.897 2355.08 164.992C2306.81 183.86 2285.31 230.374 2290.13 275.132C2292.62 283.031 2297.68 299.442 2298.03 301.899C2298.47 304.971 2294.08 316.38 2273.02 306.287C2251.96 296.195 2202.81 299.705 2185.26 311.992C2177.61 314.257 2158.13 323.978 2139.69 344.974C2137.8 344.583 2135.78 343.861 2133.92 342.708C2114.96 320.241 2094.43 309.944 2086.53 307.604C2068.98 295.317 2019.83 291.807 1998.77 301.899C1977.7 311.992 1973.32 300.583 1973.75 297.511C1974.11 295.054 1979.17 278.642 1981.65 270.744C1986.48 225.986 1964.98 179.472 1916.71 160.603C1878.09 145.508 1842.99 157.239 1830.26 164.991C1811.83 179.472 1804.67 170.696 1803.06 164.991C1806.86 155.045 1810.87 128.658 1801.74 99.1704C1790.33 62.3106 1756.98 30.2777 1743.38 25.4508C1732.5 21.5893 1717.78 6.87464 1711.79 0C1705.79 6.87464 1691.08 21.5893 1680.19 25.4508C1666.59 30.2777 1633.24 62.3106 1621.83 99.1704C1612.7 128.658 1616.71 155.045 1620.51 164.991C1618.91 170.696 1611.74 179.472 1593.31 164.991C1580.58 157.239 1545.48 145.508 1506.86 160.603C1458.6 179.472 1437.09 225.986 1441.92 270.744C1444.41 278.642 1449.47 295.054 1449.82 297.511C1450.26 300.583 1445.87 311.992 1424.81 301.899C1403.74 291.807 1354.6 295.317 1337.05 307.604C1329.15 309.944 1308.61 320.241 1289.65 342.708C1286.58 344.61 1283.07 345.341 1280.44 345.341C1277.81 345.341 1274.3 344.61 1271.22 342.708C1252.27 320.241 1231.73 309.944 1223.83 307.604C1206.28 295.317 1157.13 291.807 1136.07 301.899C1115.01 311.992 1110.62 300.583 1111.06 297.511C1111.41 295.054 1116.47 278.642 1118.96 270.744C1123.78 225.986 1102.28 179.472 1054.01 160.603C1015.4 145.508 980.295 157.239 967.569 164.991C949.139 179.472 941.972 170.696 940.363 164.991C944.166 155.045 948.174 128.658 939.047 99.1704C927.638 62.3106 894.289 30.2777 880.686 25.4508C869.803 21.5893 855.089 6.87464 849.091 0C843.094 6.87464 828.38 21.5893 817.497 25.4508C803.894 30.2777 770.545 62.3106 759.136 99.1704C750.009 128.658 754.017 155.045 757.82 164.991C756.211 170.696 749.043 179.472 730.614 164.991C717.888 157.239 682.784 145.508 644.169 160.603C595.9 179.472 574.398 225.986 579.225 270.744C581.712 278.642 586.773 295.054 587.124 297.511C587.562 300.583 583.174 311.992 562.112 301.899C541.049 291.807 491.903 295.317 474.35 307.604C466.452 309.944 445.916 320.241 426.959 342.708C424.847 344.016 422.527 344.77 420.428 345.114C401.959 324.021 382.404 314.262 374.741 311.992C357.189 299.705 308.043 296.195 286.98 306.287C265.917 316.38 261.529 304.971 261.968 301.899C262.319 299.442 267.38 283.031 269.866 275.132C274.693 230.374 253.192 183.86 204.923 164.992C166.308 149.897 131.203 161.627 118.478 169.38C100.048 183.86 92.8808 175.084 91.2719 169.38C95.0748 159.433 99.0826 133.046 89.9554 103.559C78.5464 66.6988 45.1971 34.6659 31.5941 29.839Z" fill="white"/>
        </svg>