<svg width="1121" height="180" viewBox="0 0 1121 180" fill="none" xmlns="http://www.w3.org/2000/svg">
<path d="M120.716 126C83.5165 160 42.5498 122.5 26.7165 99.5L0.716501 80.2716V118.272L49.6804 150.27C109.66 174.627 131.073 154.84 144.066 142.834L144.133 142.771C157.12 130.771 176.634 100.272 191.634 80.2716C207.467 57.2716 248.434 19.7716 285.634 53.7716C332.134 96.2716 293.885 150.456 260.134 137.271C228.134 124.771 246.134 84.7716 275.634 104.272C283.134 102.105 294.034 92.7716 277.634 72.7716C275.134 71.1049 267.734 68.2716 258.134 70.2716C254.8 70.6049 247.534 70.1716 245.134 65.7716C235.467 63.6049 216.934 65.2716 220.134 89.2716C220.634 91.9382 219.834 96.1716 212.634 91.7716C203.634 86.2716 194.634 105.272 203.634 118.272C188.634 122.272 160.034 140.171 165.634 179.771L180.134 177.771C177.8 164.605 181.034 139.171 212.634 142.771C217.967 142.605 232.334 145.571 247.134 158.771C257.3 161.605 280.734 164.271 293.134 152.271C298.634 159.771 312.034 171.571 321.634 158.771C327.467 167.605 341.934 180.471 353.134 161.271C360.301 163.271 374.734 164.271 375.134 152.271C435.218 176.671 463.035 156.105 469.5 142.771C480 129 502 100.272 517 80.2716C532.833 57.2716 573.8 19.7716 611 53.7716C657.5 96.2716 619.252 150.456 585.5 137.271C553.5 124.771 571.5 84.7716 601 104.272C608.5 102.105 619.4 92.7716 603 72.7716C600.5 71.1049 593.1 68.2716 583.5 70.2716C580.167 70.6049 572.9 70.1716 570.5 65.7716C560.833 63.6049 542.3 65.2716 545.5 89.2716C546 91.9382 545.2 96.1716 538 91.7716C529 86.2716 520 105.272 529 118.272C514 122.272 485.4 140.171 491 179.771L505.5 177.771C503.166 164.605 506.4 139.171 538 142.771C543.333 142.605 557.7 145.571 572.5 158.771C582.666 161.605 606.1 164.271 618.5 152.271C624 159.771 637.4 171.571 647 158.771C652.833 167.605 667.3 180.471 678.5 161.271C685.667 163.271 700.1 164.271 700.5 152.271C760.584 176.671 788.467 156.167 794.932 142.834C804.5 128.5 827.5 100.272 842.5 80.2716C858.333 57.2716 899.3 19.7716 936.5 53.7716C983 96.2716 944.751 150.456 911 137.271C879 124.771 897 84.7715 926.5 104.272C934 102.105 944.9 92.7716 928.5 72.7716C926 71.1049 918.6 68.2716 909 70.2716C905.667 70.6049 898.4 70.1716 896 65.7716C886.333 63.6049 867.8 65.2716 871 89.2716C871.5 91.9382 870.7 96.1716 863.5 91.7716C854.5 86.2716 845.5 105.272 854.5 118.272C839.5 122.272 810.9 140.171 816.5 179.771L831 177.771C828.666 164.605 831.9 139.171 863.5 142.771C868.833 142.605 883.2 145.571 898 158.771C908.166 161.605 931.6 164.271 944 152.271C949.5 159.771 962.9 171.571 972.5 158.771C978.333 167.605 992.8 180.471 1004 161.271C1011.17 163.271 1025.6 164.271 1026 152.271C1086.08 176.671 1114.04 156.105 1120.5 142.771L1097.08 126C1059.88 160 1018.92 122.5 1003.08 99.5C988.083 79.5 975.583 59.0004 955.583 37.0002C949.118 23.6668 921.167 3.1 861.083 27.5C860.682 15.5 846.249 16.5001 839.083 18.5002C827.883 -0.699665 813.416 12.1669 807.583 21.0002C797.983 8.20018 784.583 20.0001 779.083 27.5C766.682 15.5 743.249 18.1668 733.083 21.0002C718.283 34.2003 703.916 37.1669 698.583 37.0002C666.983 40.6003 663.749 15.1668 666.083 2L651.583 0C645.983 39.6 674.583 57.5 689.583 61.5C680.583 74.5 689.583 93.5 698.583 88C705.783 83.6 706.583 87.8333 706.083 90.5C702.883 114.5 721.416 116.167 731.083 114C733.483 109.6 740.749 109.167 744.083 109.5C753.682 111.5 761.083 108.667 763.583 107C779.982 87 769.083 77.6667 761.583 75.5C732.083 95 714.083 55 746.083 42.5C779.834 29.3158 818.5 84 772 126.5C734.8 160.5 693.416 122.5 677.583 99.5C662.583 79.5 650.083 59.0004 630.083 37.0002C623.618 23.6668 595.667 3.1 535.583 27.5C535.183 15.5 520.749 16.5001 513.583 18.5002C502.383 -0.699657 487.916 12.1669 482.083 21.0002C472.483 8.20019 459.083 20.0001 453.583 27.5C441.183 15.5 417.749 18.1668 407.583 21.0002C392.783 34.2003 378.416 37.1669 373.083 37.0002C341.483 40.6003 338.249 15.1668 340.583 2L326.083 0C320.483 39.6 349.083 57.5 364.083 61.5C355.083 74.5 364.083 93.5 373.083 88C380.283 83.6 381.083 87.8333 380.583 90.5C377.383 114.5 395.916 116.167 405.583 114C407.983 109.6 415.249 109.167 418.583 109.5C428.183 111.5 435.583 108.667 438.083 107C454.483 87 443.583 77.6667 436.083 75.5C406.583 95 388.583 55 420.583 42.5C454.334 29.3158 492.583 83.5 446.083 126C408.883 160 367.916 122.5 352.083 99.5C337.083 79.5 324.716 59.0004 304.716 37.0002C298.252 23.6668 270.301 3.1 210.217 27.5C209.817 15.5 195.383 16.5001 188.217 18.5002C177.016 -0.699657 162.55 12.1669 156.717 21.0002C147.117 8.20019 133.717 20.0001 128.217 27.5C115.817 15.5 92.3832 18.1668 82.2165 21.0002C67.4165 34.2003 53.0498 37.1669 47.7165 37.0002C16.1165 40.6003 12.8832 15.1668 15.2165 2L0.716501 0C-4.8835 39.6 23.7165 57.5 38.7165 61.5C29.7165 74.5 38.7165 93.5 47.7165 88C54.9165 83.6 55.7165 87.8333 55.2165 90.5C52.0165 114.5 70.5498 116.167 80.2165 114C82.6165 109.6 89.8832 109.167 93.2165 109.5C102.817 111.5 110.216 108.667 112.716 107C129.116 87 118.216 77.6667 110.716 75.5C81.2165 95 63.2165 55 95.2165 42.5C128.968 29.3158 167.216 83.5 120.716 126Z" fill="#FFD43C"/>
</svg>
