<svg width="1280" height="661" viewBox="0 0 1280 661" fill="none" xmlns="http://www.w3.org/2000/svg">
<path d="M136.451 779.538C66.7936 767.285 46.5164 842.544 45.085 881.705L28.7734 924.055L0.158604 879.053L34.0499 804.288C86.7406 730.276 126.998 737.585 151.427 742.02L151.554 742.043C175.97 746.475 222.046 767.901 254.871 780.291C290.941 795.606 367.695 809.167 386.147 740.89C409.213 655.543 323.114 620.176 293.071 661.205C264.587 700.105 316.025 733.922 336.277 688.614C346.791 685.532 366.728 688.378 362.366 724.413C360.66 728.269 354.03 737.197 341.155 742.057C336.957 744.173 328.677 750.158 329.148 757.176C319.332 767.021 296.128 779.003 281.845 748.171C280.429 744.637 276.294 740.226 271.081 750.858C264.564 764.149 239.598 748.425 240.467 726.252C219.691 732.811 172.342 733.149 149.154 682.035L167.832 673.484C174.984 690.834 197.965 718.52 232.677 690.461C239.118 686.642 253.899 672.31 261.486 645.533C271.392 634.522 297.136 613.718 320.857 618.591C321.723 605.568 328.706 581.503 349.714 589.433C349.971 574.579 357.414 548.448 385.136 562.752C392.117 554.987 408.457 542.934 417.967 556.844C470.749 482.703 519.179 486.113 536.875 497.035C559.681 505.437 607.367 522.893 640.192 535.283C676.262 550.598 753.017 564.159 771.469 495.882C794.534 410.535 708.435 375.168 678.392 416.198C649.909 455.098 701.346 488.914 721.598 443.606C732.112 440.525 752.049 443.37 747.687 479.405C745.981 483.261 739.351 492.189 726.476 497.05C722.278 499.165 713.998 505.15 714.469 512.168C704.653 522.013 681.449 533.996 667.166 503.163C665.75 499.629 661.615 495.218 656.402 505.85C649.885 519.141 624.919 503.417 625.788 481.245C605.012 487.803 557.663 488.141 534.475 437.027L553.153 428.477C560.305 445.827 583.286 473.512 617.998 445.453C624.439 441.634 639.22 427.303 646.807 400.525C656.713 389.514 682.457 368.71 706.178 373.584C707.044 360.56 714.028 336.495 735.035 344.425C735.292 329.572 742.735 303.44 770.457 317.744C777.438 309.979 793.778 297.926 803.288 311.836C856.07 237.695 904.531 240.981 922.228 251.903C944.353 261.674 992.847 277.784 1025.67 290.174C1061.74 305.49 1138.5 319.051 1156.95 250.773C1180.01 165.426 1093.92 130.06 1063.87 171.089C1035.39 209.989 1086.83 243.805 1107.08 198.498C1117.59 195.416 1137.53 198.261 1133.17 234.296C1131.46 238.153 1124.83 247.081 1111.96 251.941C1107.76 254.056 1099.48 260.042 1099.95 267.06C1090.13 276.905 1066.93 288.887 1052.65 258.055C1051.23 254.52 1047.09 250.109 1041.88 260.742C1035.36 274.033 1010.4 258.309 1011.27 236.136C990.492 242.694 943.143 243.032 919.955 191.918L938.633 183.368C945.784 200.718 968.766 228.404 1003.48 200.345C1009.92 196.526 1024.7 182.194 1032.29 155.417C1042.19 144.406 1067.94 123.601 1091.66 128.475C1092.52 115.452 1099.51 91.3869 1120.51 99.3165C1120.77 84.4629 1128.22 58.3318 1155.94 72.6357C1162.92 64.8704 1179.26 52.8174 1188.77 66.7274C1241.55 -7.41355 1290.14 -4.10458 1307.84 6.81761L1292.73 44.3132C1223.07 32.0605 1202.8 107.319 1201.37 146.48C1198.66 181.461 1199.3 215.151 1192.18 256.266C1194.56 276.924 1176.95 322.328 1087.42 338.677C1095.98 353.189 1078.13 362.874 1068.14 365.902C1069.33 397.073 1042.51 392.729 1028.95 386.661C1027.22 409.049 1002.47 405.165 990.307 400.425C984.658 423.973 954.898 438.461 940.725 442.761C913.258 438.273 894.01 445.579 887.819 449.792C847.685 469.324 863.008 501.879 875.686 515.715L860.02 529.002C823.569 486.322 843.96 443.587 858.712 427.555C838.264 418.937 834.615 389.658 849.415 389.395C861.255 389.184 859.015 383.568 856.415 380.786C834.552 354.774 855.246 338.844 868.325 334.13C874.481 337.534 883.413 332.575 887.11 329.67C896.972 320.073 907.87 317.856 912.085 317.947C946.568 329.283 940.688 348.544 933.437 356.758C883.817 355.879 892.621 416.804 939.93 407.51C989.83 397.708 994.442 303.831 907.37 288.515C837.712 276.263 817.317 352.428 815.886 391.589C813.182 426.57 813.816 460.259 806.697 501.374C809.081 522.033 791.467 567.437 701.937 583.785C710.5 598.298 692.654 607.982 682.66 611.01C683.854 642.182 657.033 637.838 643.473 631.77C641.743 654.157 616.988 650.274 604.827 645.533C599.178 669.082 569.419 683.57 555.245 687.87C527.778 683.382 508.53 690.687 502.339 694.901C462.206 714.433 477.528 746.988 490.207 760.824L474.541 774.111C438.089 731.431 458.48 688.696 473.232 672.664C452.784 664.045 449.135 634.767 463.936 634.503C475.776 634.292 473.535 628.676 470.935 625.895C449.073 599.882 469.766 583.952 482.846 579.239C489.001 582.642 497.933 577.684 501.63 574.779C511.493 565.181 522.39 562.964 526.606 563.056C561.088 574.391 555.208 593.653 547.957 601.866C498.337 600.987 507.141 661.912 554.451 652.619C604.35 642.817 608.844 549.846 521.772 534.53C452.115 522.278 431.838 597.536 430.406 636.698C427.703 671.678 428.494 705.267 421.376 746.382C423.76 767.04 406.146 812.445 316.616 828.793C325.179 843.306 307.332 852.99 297.339 856.018C298.533 887.19 271.712 882.846 258.152 876.777C256.422 899.165 231.667 895.281 219.506 890.541C213.857 914.09 184.098 928.577 169.924 932.878C142.457 928.39 123.209 935.695 117.018 939.908C76.8844 959.44 92.2073 991.995 104.885 1005.83L89.2196 1019.12C52.768 976.439 73.1591 933.704 87.911 917.671C67.4633 909.053 63.8143 879.775 78.6144 879.511C90.4544 879.3 88.214 873.684 85.6138 870.903C63.7516 844.89 84.4451 828.96 97.5246 824.247C103.68 827.65 112.612 822.691 116.309 819.787C126.172 810.189 137.069 807.972 141.284 808.063C175.767 819.399 169.887 838.66 162.636 846.874C113.016 845.995 121.82 906.92 169.13 897.627C219.029 887.825 223.523 794.854 136.451 779.538Z" fill="#FFD43C" fill-opacity="0.69"/>
</svg>
